<svg width="406" height="306" viewBox="0 0 406 306" fill="none" xmlns="http://www.w3.org/2000/svg">
    <g id="Diving_Monochromatic 1" clip-path="url(#clip0)">
        <path id="Vector" opacity="0.27" d="M401.17 264.842C396.899 276.273 389.72 286.075 379.255 292.827C342.415 316.579 269.975 281.633 206.229 293.594C153.195 303.538 76.0008 297.695 42.532 267.351C35.7512 261.196 30.7602 254.036 28.1369 245.797C13.3345 199.278 65.4222 180.886 77.2509 76.5589C80.092 51.5379 94.1273 28.9886 115.796 16.1466C126.8 9.66573 139.179 5.87566 151.926 5.0851C207.12 1.16432 216.23 28.1457 283.262 15.3322C350.295 2.5186 368.402 38.4875 368.402 70.0811C368.402 101.675 354.888 133.694 383.555 170.582C404.144 196.986 411.966 236.061 401.17 264.842Z" fill="#5EC9E1" />
        <path id="Vector_2" d="M332.547 74.6933C332.547 85.5938 329.137 85.0445 328.617 86.2946C328.219 87.2417 322.072 89.2399 318.351 89.7798C317.507 89.9806 316.628 89.9806 315.784 89.7798C314.032 88.9274 314.903 86.1052 315.633 84.23C316.362 82.3549 320.803 82.4306 325.226 79.6747C329.649 76.9188 323.105 29.6895 323.095 24.386C323.086 19.0825 329.355 20.9861 329.355 20.9861C329.355 20.9861 329.355 21.0808 329.355 21.2513C329.639 24.8406 332.547 64.2947 332.547 74.6933Z" fill="#5EC9E1" />
        <path id="Vector_3" d="M332.547 74.6933C332.547 85.5938 329.137 85.0445 328.617 86.2946C328.219 87.2417 322.072 89.24 318.351 89.7798C317.508 88.6054 318.227 86.342 318.843 84.7604C319.572 82.8663 324.014 82.9705 328.437 80.2146C332.859 77.4587 326.315 30.2293 326.306 24.9164C326.306 22.293 327.831 21.4312 329.374 21.2418C329.639 24.8406 332.547 64.2947 332.547 74.6933Z" fill="url(#paint0_linear)" />
        <path id="Vector_4" opacity="0.27" d="M130.806 60.6674C137.644 54.3506 146.092 50.0605 154.663 46.4617C171.151 39.4914 189.334 34.6899 206.911 38.0898C214.545 39.5672 221.808 42.5504 228.892 45.7798C243.988 52.6554 258.866 61.0178 269.616 73.6609C280.365 86.304 286.331 103.967 281.52 119.867C277.732 132.34 267.788 142.805 266.699 155.789C265.515 169.815 274.938 182.306 283.906 193.131C286.227 195.972 288.699 198.813 292.089 200.206C295.962 201.74 300.309 200.963 304.457 200.575C320.137 199.13 335.775 203.744 348.159 213.467C360.544 223.191 368.736 237.287 371.054 252.862C372.077 259.747 371.584 267.617 366.565 272.437C363.326 275.534 358.771 276.803 354.357 277.551C332.462 281.283 310.253 275.07 288.699 269.71C259.7 262.493 229.669 256.697 200.055 260.713C175.043 264.113 149.994 274.435 125.351 268.971C114.243 266.509 103.058 259.851 99.6202 249.007C97.9344 243.685 98.2943 237.908 99.4213 232.443C104.374 208.36 122.823 189.826 138.97 171.245C143.042 166.576 147.276 161.007 146.433 154.87C145.363 147.095 137.095 142.938 130.816 138.24C106.212 119.754 109.451 80.3944 130.806 60.6674Z" fill="#5EC9E1" />
        <path id="Vector_5" d="M261.736 72.1456L285.232 75.7728L281.349 78.3583H270.184L212.631 88.4728L209.639 82.7999L261.736 72.1456Z" fill="#5EC9E1" />
        <path id="Vector_6" d="M261.736 72.1456L285.232 75.7728L281.349 78.3583H270.184L212.631 88.4728L209.639 82.7999L261.736 72.1456Z" fill="url(#paint1_linear)" />
        <path id="Vector_7" d="M284.001 81.512C284.001 81.512 291.17 74.5323 294.021 61.4725C296.872 48.4127 311.163 47.6455 316.371 50.373C321.58 53.1005 326.06 62.1259 322.205 74.5512C318.351 86.9765 304.865 84.7793 298.728 82.3075C297.501 83.0789 296.448 84.0954 295.633 85.2932C294.818 86.4911 294.26 87.8444 293.992 89.2684C293.992 89.2684 279.91 92.1474 284.001 81.512Z" fill="url(#paint2_linear)" />
        <path id="Vector_8" d="M303.283 63.7832C303.16 64.9197 303.16 66.1792 302.336 67.0032C301.936 67.3659 301.469 67.6487 300.963 67.8366L290.744 72.4108C290.535 72.1455 290.408 71.8253 290.378 71.4891C290.347 71.1528 290.416 70.815 290.574 70.5167C290.848 69.8917 291.284 69.3518 291.521 68.7173C291.752 67.8118 291.832 66.8741 291.757 65.9425C291.799 64.9062 291.935 63.8759 292.165 62.8646C292.79 59.8719 294.059 56.5856 296.834 55.3734C297.992 54.9479 299.217 54.733 300.451 54.7389C302.203 54.6347 308.672 53.252 307.639 56.15C307.261 57.2107 305.442 58.3471 304.798 59.4078C303.983 60.7395 303.466 62.2323 303.283 63.7832V63.7832Z" fill="#5EC9E1" />
        <path id="Vector_9" d="M303.283 63.7832C303.16 64.9197 303.16 66.1792 302.336 67.0032C301.936 67.3659 301.469 67.6487 300.963 67.8366L290.744 72.4108C290.535 72.1455 290.408 71.8253 290.378 71.4891C290.347 71.1528 290.416 70.815 290.574 70.5167C290.848 69.8917 291.284 69.3518 291.521 68.7173C291.752 67.8118 291.832 66.8741 291.757 65.9425C291.799 64.9062 291.935 63.8759 292.165 62.8646C292.79 59.8719 294.059 56.5856 296.834 55.3734C297.992 54.9479 299.217 54.733 300.451 54.7389C302.203 54.6347 308.672 53.252 307.639 56.15C307.261 57.2107 305.442 58.3471 304.798 59.4078C303.983 60.7395 303.466 62.2323 303.283 63.7832V63.7832Z" fill="url(#paint3_linear)" />
        <path id="Vector_10" d="M292.847 59.531C295.166 60.741 297.696 61.4933 300.3 61.7471L302.923 62.5994L301.559 72.1552L298.718 71.5206C298.718 71.5206 293.188 70.3368 291.492 68.8973C289.797 67.4578 289.598 62.7983 292.847 59.531Z" fill="#5EC9E1" />
        <path id="Vector_11" d="M292.847 59.531C295.166 60.741 297.696 61.4933 300.3 61.7471L302.923 62.5994L301.559 72.1552L298.718 71.5206C298.718 71.5206 293.188 70.3368 291.492 68.8973C289.797 67.4578 289.598 62.7983 292.847 59.531Z" fill="url(#paint4_linear)" />
        <path id="Vector_12" d="M290.668 67.6566C290.668 67.6566 295.915 69.7591 299.675 69.7022C303.435 69.6454 303.681 72.1551 303.681 72.1551C303.681 72.1551 298.661 71.7952 297.61 71.2081C296.559 70.6209 291.227 69.8822 290.668 67.6566Z" fill="url(#paint5_linear)" />
        <path id="Vector_13" d="M306.295 58.2903C304.164 58.4039 299.552 61.3871 299.949 64.3514C300.347 67.3157 298.387 69.8064 301.2 72.979C304.012 76.1516 307.109 77.2029 312.564 75.0152C318.019 72.8275 318.502 71.0281 321.144 74.1534C323.787 77.2786 327.546 73.5283 327.546 73.5283C327.546 73.5283 329.441 65.9519 327.85 62.0785C326.135 57.7694 309.183 58.1388 306.295 58.2903Z" fill="#5EC9E1" />
        <path id="Vector_14" d="M309.221 58.2903C307.374 58.4039 303.368 61.3871 303.709 64.3514C304.05 67.3157 302.355 69.8064 304.798 72.979C307.242 76.1516 309.931 77.2029 314.657 75.0152C319.383 72.8275 319.819 71.0281 322.11 74.1534C324.402 77.2786 327.67 73.5283 327.67 73.5283C327.67 73.5283 329.28 65.9519 327.925 62.0785C326.438 57.7694 311.721 58.1388 309.221 58.2903Z" fill="url(#paint6_linear)" />
        <path id="Vector_15" d="M307.573 60.2317C311.712 59.2847 325.008 59.2847 327.111 62.6846C329.213 66.0845 327.168 73.4431 326.164 73.4431C325.16 73.4431 323.986 74.4943 320.055 71.7763C316.125 69.0582 313.199 74.0965 309.297 74.1534C300.783 74.2859 303.435 61.1977 307.573 60.2317Z" fill="url(#paint7_linear)" />
        <path id="Vector_16" d="M308.378 79.6937C307.189 80.6581 306.301 81.9431 305.819 83.3966C305.337 84.8501 305.282 86.4113 305.66 87.8951C306.196 89.4779 307.266 90.8251 308.686 91.7062C310.106 92.5873 311.789 92.9474 313.445 92.7251C315.086 92.4166 316.577 91.5671 317.679 90.3123C318.781 89.0574 319.431 87.4696 319.525 85.8021C319.488 84.1344 319.168 82.4851 318.578 80.9248C317.858 78.5951 317.205 77.2976 314.657 77.4018C312.37 77.4595 310.165 78.2645 308.378 79.6937V79.6937Z" fill="#5EC9E1" />
        <path id="Vector_17" d="M308.378 79.6937C307.189 80.6581 306.301 81.9431 305.819 83.3966C305.337 84.8501 305.282 86.4113 305.66 87.8951C306.196 89.4779 307.266 90.8251 308.686 91.7062C310.106 92.5873 311.789 92.9474 313.445 92.7251C315.086 92.4166 316.577 91.5671 317.679 90.3123C318.781 89.0574 319.431 87.4696 319.525 85.8021C319.488 84.1344 319.168 82.4851 318.578 80.9248C317.858 78.5951 317.205 77.2976 314.657 77.4018C312.37 77.4595 310.165 78.2645 308.378 79.6937V79.6937Z" fill="#5EC9E1" />
        <path id="Vector_18" d="M311.172 79.6937C309.984 80.6595 309.098 81.9447 308.616 83.3977C308.135 84.8508 308.078 86.4112 308.454 87.8951C308.99 89.4779 310.06 90.8251 311.48 91.7062C312.9 92.5873 314.582 92.9474 316.239 92.7251C317.881 92.4169 319.373 91.5678 320.477 90.3131C321.58 89.0584 322.232 87.4704 322.328 85.8021C322.287 84.1349 321.967 82.4864 321.381 80.9248C320.652 78.5951 320.008 77.2976 317.451 77.4018C315.164 77.4623 312.96 78.2669 311.172 79.6937V79.6937Z" fill="#5EC9E1" />
        <path id="Vector_19" d="M311.172 79.6937C309.984 80.6595 309.098 81.9447 308.616 83.3977C308.135 84.8508 308.078 86.4112 308.454 87.8951C308.99 89.4779 310.06 90.8251 311.48 91.7062C312.9 92.5873 314.582 92.9474 316.239 92.7251C317.881 92.4169 319.373 91.5678 320.477 90.3131C321.58 89.0584 322.232 87.4704 322.328 85.8021C322.287 84.1349 321.967 82.4864 321.381 80.9248C320.652 78.5951 320.008 77.2976 317.451 77.4018C315.164 77.4623 312.96 78.2669 311.172 79.6937V79.6937Z" fill="url(#paint8_linear)" />
        <g id="left-leg">
            <path id="Vector_20" d="M42.532 74.9869C27.5213 84.6752 27.1614 114.289 27.1614 114.289C27.1614 114.289 22.786 116.184 19.9354 114.46C17.0848 112.736 12.0654 112.888 9.69781 116.894C8.59666 118.839 6.83669 120.327 4.73527 121.089C4.4 121.211 4.05455 121.303 3.70299 121.364C-13.2587 94.3256 33.3172 65.8478 33.3172 65.8478C36.2057 64.3989 43.5643 55.2504 49.5023 55.5155C50.4266 55.4944 51.3453 55.6643 52.2008 56.0146C53.0564 56.365 53.8304 56.8883 54.4743 57.5517C55.1837 58.3461 55.636 59.3365 55.7718 60.3928C55.7718 60.3928 57.5522 65.3459 42.532 74.9869Z" fill="#5EC9E1" />
            <path id="Vector_21" d="M42.532 74.9868C27.5213 84.6751 27.1614 114.289 27.1614 114.289C27.1614 114.289 22.786 116.183 19.9354 114.46C17.0848 112.736 12.0654 112.888 9.6978 116.894C8.59665 118.839 6.83669 120.327 4.73527 121.089C-9.30947 94.5718 35.3439 67.24 35.3439 67.24C38.185 65.7626 45.572 56.6425 51.5195 56.9076C52.5331 56.9366 53.5335 57.1451 54.4743 57.5232C55.1837 58.3176 55.636 59.3081 55.7717 60.3644C55.7717 60.3644 57.5522 65.3459 42.532 74.9868Z" fill="url(#paint9_linear)" />
            <path id="Vector_22" d="M66.7859 65.8478C66.7859 65.8478 61.2836 72.0983 61.5393 74.6364L105.738 93.7573C105.738 93.7573 121.459 99.165 127.946 103.152C134.434 107.139 175.763 136.015 198.738 125.929C221.714 115.843 190.357 95.1021 190.357 95.1021C190.357 95.1021 169.73 90.4237 148.223 91.598C126.715 92.7724 124.082 82.0518 116.203 78.2257C108.324 74.3996 66.7859 65.8478 66.7859 65.8478Z" fill="#5EC9E1" />
            <path id="Vector_23" d="M66.7859 65.8478C66.7859 65.8478 61.2836 72.0983 61.5393 74.6364L105.738 93.7573C105.738 93.7573 121.459 99.165 127.946 103.152C134.434 107.139 175.763 136.015 198.738 125.929C221.714 115.843 190.357 95.1021 190.357 95.1021C190.357 95.1021 169.73 90.4237 148.223 91.598C126.715 92.7724 124.082 82.0518 116.203 78.2257C108.324 74.3996 66.7859 65.8478 66.7859 65.8478Z" fill="url(#paint10_linear)" />
            <path id="Vector_24" d="M66.7859 65.8478L54.2754 59.6636L47.9301 65.8573L46.4054 69.2098C46.4054 69.2098 60.1566 68.5564 63.8595 73.7462L66.7859 65.8478Z" fill="url(#paint11_linear)" />
        </g>
        <g id="right-leg">
            <path id="Vector_25" d="M190.357 95.1022C190.357 95.1022 171.567 93.2744 159.767 102.404C147.967 111.533 131.034 124.896 115.682 121.345C100.33 117.793 51.3964 137.445 51.3964 137.445C51.3964 137.445 51.188 146.129 55.7433 146.034L144.766 142.246C144.766 142.246 193.605 136.564 202.072 131.876C202.138 131.933 198.937 110.17 190.357 95.1022Z" fill="#5EC9E1" />
            <path id="Vector_26" d="M190.357 95.1022C190.357 95.1022 171.567 93.2744 159.767 102.404C147.967 111.533 131.034 124.896 115.682 121.345C100.33 117.793 51.3964 137.445 51.3964 137.445C51.3964 137.445 51.188 146.129 55.7433 146.034L144.766 142.246C144.766 142.246 193.605 136.564 202.072 131.876C202.138 131.933 198.937 110.17 190.357 95.1022Z" fill="url(#paint12_linear)" />
            <path id="Vector_27" d="M51.4247 137.502L30.8264 143.544L34.3684 158.895C34.3684 158.895 36.736 149.425 42.7687 147.086C45.9994 145.742 49.3791 144.788 52.8358 144.245C52.8358 144.245 56.8229 139.86 51.4247 137.502Z" fill="url(#paint13_linear)" />
            <path id="Vector_28" d="M69.2671 206.911C69.2671 207.299 66.909 208.218 59.7966 209.401C52.6843 210.585 47.2009 218.72 47.485 220.293C47.7691 221.865 45.9129 222.651 45.9129 222.651C38.829 223.181 27.5401 208.445 27.1519 199.296C26.7636 190.148 23.6004 172.145 20.9108 159.672C19.6418 153.8 19.8122 150.931 20.7119 149.169C21.7158 147.18 23.6288 146.603 25.4472 144.727C28.8565 141.186 33.9706 142.634 33.9706 142.634C33.1467 173.726 45.8087 190.375 57.0975 198.51C61.3309 201.56 64.1057 203.445 65.9146 204.638C68.9073 206.617 69.2671 206.664 69.2671 206.911Z" fill="#5EC9E1" />
            <path id="Vector_29" d="M65.8862 204.638C64.5129 204.95 62.7609 205.291 60.5353 205.67C53.4514 206.854 45.8561 216.732 46.1213 218.304C46.3864 219.876 44.5113 220.662 44.5113 220.662C37.4273 221.192 28.222 204.751 27.8337 195.565C27.4454 186.379 24.2823 168.413 21.5927 155.941C21.0488 153.721 20.7315 151.452 20.6456 149.169C21.6495 147.18 23.5625 146.603 25.3809 144.727C28.7903 141.186 33.9043 142.634 33.9043 142.634C33.0804 173.726 45.7424 190.375 57.0313 198.51C61.3025 201.56 64.0773 203.445 65.8862 204.638Z" fill="url(#paint14_linear)" />
        </g>
        <path id="Vector_30" d="M296.606 92.8104C296.606 92.8104 317.754 108.522 331.647 111.41L338.22 115.435L336.326 122.434L314.07 120.379C314.07 120.379 286.265 109.119 285.45 107.622C284.636 106.126 285.706 89.1642 296.606 92.8104Z" fill="#5EC9E1" />
        <path id="Vector_31" d="M338.229 115.426L336.335 122.425L314.079 120.369C314.079 120.369 286.274 109.109 285.46 107.613C285.119 106.988 285.119 103.626 286.028 100.207C285.871 101.28 285.926 102.374 286.189 103.427C286.994 104.923 314.799 116.184 314.799 116.184L337.064 118.239L337.888 115.208L338.229 115.426Z" fill="url(#paint15_linear)" />
        <path id="Vector_32" d="M338.229 115.426C338.229 115.426 349.177 112.831 352.028 116.932C353.713 119.366 354.537 123.353 354.916 126.184C354.963 126.537 354.918 126.896 354.787 127.226C354.655 127.557 354.44 127.848 354.163 128.071C353.886 128.295 353.557 128.443 353.206 128.503C352.855 128.562 352.495 128.53 352.16 128.41L345.91 127.87L342.491 122.841L336.316 122.425L338.229 115.426Z" fill="url(#paint16_linear)" />
        <path id="Vector_33" d="M163.48 74.0776L165.071 80.707C165.677 83.19 167.2 85.3516 169.335 86.7572C171.469 88.1627 174.057 88.708 176.577 88.2834L257.493 74.8163C257.493 74.8163 265.941 71.5964 265.609 63.6222C265.278 55.6481 260.922 47.8349 247.303 49.3123C236.933 50.4298 192.279 58.1483 171.539 61.766C170.183 62.0081 168.89 62.5248 167.74 63.2845C166.591 64.0441 165.608 65.0306 164.854 66.1834C164.099 67.3363 163.588 68.6312 163.352 69.9887C163.115 71.3461 163.159 72.7376 163.48 74.0776V74.0776Z" fill="#5EC9E1" />
        <path id="Vector_34" d="M265.609 63.6128C265.941 71.5869 257.493 74.8069 257.493 74.8069L176.577 88.3308C174.057 88.7554 171.469 88.2101 169.335 86.8046C167.2 85.399 165.677 83.2374 165.071 80.7544L164.9 80.0252L164.701 79.2107L163.48 74.125C163.159 72.7823 163.117 71.3882 163.356 70.0285C163.594 68.6688 164.109 67.3724 164.867 66.219C165.626 65.0657 166.612 64.0798 167.766 63.3221C168.92 62.5644 170.217 62.051 171.577 61.8134C192.279 58.1957 236.923 50.4488 247.341 49.3597C259.653 48.0244 264.388 54.237 265.42 61.3209C265.524 62.081 265.587 62.846 265.609 63.6128V63.6128Z" fill="url(#paint17_linear)" />
        <path id="Vector_35" d="M265.609 63.6127C265.941 71.5869 257.493 74.8069 257.493 74.8069L176.577 88.3307C174.057 88.7553 171.469 88.2101 169.335 86.8045C167.2 85.399 165.677 83.2374 165.071 80.7543L164.9 80.0251C165.648 80.7259 168.471 81.3131 178.386 79.2106C193.852 75.9149 255.353 65.8951 255.353 65.8951C255.353 65.8951 263.299 65.1375 265.382 61.3114C265.499 62.0739 265.575 62.8421 265.609 63.6127Z" fill="url(#paint18_linear)" />
        <path id="Vector_36" d="M228.62 49.6089L218.372 51.2651C215.41 51.7438 213.397 54.5329 213.876 57.4948L218.375 85.3315C218.853 88.2934 221.642 90.3064 224.604 89.8277L234.852 88.1715C237.814 87.6928 239.827 84.9037 239.348 81.9418L234.849 54.1051C234.371 51.1432 231.581 49.1302 228.62 49.6089Z" fill="#5EC9E1" />
        <path id="Vector_37" d="M234.433 86.9386L224.223 88.6338C223.521 88.7516 222.803 88.7296 222.109 88.569C221.415 88.4084 220.76 88.1124 220.181 87.6979C219.602 87.2835 219.111 86.7588 218.735 86.1539C218.359 85.549 218.107 84.8759 217.992 84.1732L213.38 56.4341C213.187 55.2403 213.396 54.0161 213.976 52.9546C214.555 51.8932 215.472 51.0549 216.581 50.5719C216.978 50.3974 217.394 50.2703 217.821 50.1931L228.031 48.4979C229.448 48.2651 230.9 48.604 232.068 49.4401C233.236 50.2763 234.025 51.5415 234.262 52.9585L238.865 80.6975C239.103 82.1127 238.771 83.5648 237.94 84.7349C237.109 85.9051 235.847 86.6976 234.433 86.9386V86.9386Z" fill="url(#paint19_linear)" />
        <path id="Vector_38" d="M234.433 86.9386L224.223 88.6338C223.237 88.7972 222.224 88.6858 221.297 88.3118L215.738 54.7957C215.487 53.332 215.787 51.8272 216.581 50.5719C216.978 50.3974 217.394 50.2703 217.821 50.1931L228.031 48.4979C229.448 48.2651 230.9 48.604 232.068 49.4401C233.236 50.2763 234.025 51.5415 234.262 52.9585L238.865 80.6975C239.103 82.1127 238.771 83.5648 237.94 84.7349C237.109 85.9051 235.847 86.6976 234.433 86.9386V86.9386Z" fill="url(#paint20_linear)" />
        <path id="Vector_39" d="M266.32 57.8926L265.316 51.5L267.002 51.2822L267.939 57.6275L266.32 57.8926Z" fill="#5EC9E1" />
        <path id="Vector_40" opacity="0.27" d="M401.17 264.842C396.899 276.273 389.72 286.075 379.255 292.827C369.037 299.456 356.072 301.483 341.373 301.294C302.942 300.801 252.351 284.948 206.277 293.594C185.202 297.354 163.774 298.754 142.389 297.771C103.077 296.094 63.9258 286.7 42.5793 267.351C42.5793 267.351 196.342 237.169 283.225 255.286C370.107 273.403 401.17 264.842 401.17 264.842Z" fill="#5EC9E1" />
        <g id="left-plant">
            <path id="Vector_41" d="M106.07 258.591C103.172 253.629 98.8151 249.698 95.2448 245.2C86.4467 234.129 82.9331 217.215 91.6081 206.049C96.0272 209.623 99.4572 214.269 101.571 219.544C103.039 223.247 105.037 228.068 109.005 227.755C112.974 227.443 114.119 222.49 114.385 218.645L115.938 196.863C116.165 193.69 116.705 189.996 119.48 188.443C120.947 187.713 122.627 187.535 124.215 187.941C131.289 189.409 135.258 197.497 134.907 204.704C134.557 211.911 131.072 218.541 128.221 225.17C125.575 231.303 123.418 237.637 121.772 244.111C121.203 246.327 120.701 248.695 121.412 250.873C122.122 253.051 124.509 254.841 126.668 254.093C129.935 252.956 130.551 247.246 133.998 247.369C134.853 247.438 135.657 247.803 136.271 248.401C139.993 251.763 137.919 258.127 134.377 261.66C130.835 265.192 126.081 267.759 123.836 272.238C122.046 275.837 122.207 280.051 122.378 284.067C122.482 286.34 122.378 289.001 120.569 290.346C113.674 295.394 111.373 282.476 111.098 278.981C110.653 271.916 109.64 264.747 106.07 258.591Z" fill="#24A200" />
        </g>
        <g id="right-plant">
            <path id="Vector_42" d="M349.944 255.58C346.042 252.435 341.648 249.897 337.917 246.564C334.185 243.23 331.051 238.77 330.795 233.76C330.539 228.75 334.015 223.342 339.006 222.897C341.913 222.613 345.569 223.664 347.264 221.278C347.879 220.207 348.153 218.975 348.05 217.745C348.135 210.169 347.368 202.488 348.94 195.082C350.512 187.676 355.039 180.28 362.246 177.941C364.661 177.155 367.55 177.06 369.51 178.679C372.418 181.104 371.717 185.65 370.912 189.343C368.487 200.351 367.38 211.609 367.616 222.878C367.73 228.466 368.563 234.745 372.957 238.144L381.187 228.238C381.401 227.897 381.684 227.605 382.019 227.381C382.353 227.157 382.732 227.007 383.129 226.941C383.722 226.998 384.273 227.275 384.672 227.717C389.161 231.941 386.841 239.593 383.044 244.461C379.246 249.329 374.094 253.742 373.251 259.86C372.692 263.933 374.198 267.977 375.6 271.859C378.441 279.862 375.164 296.028 366.849 283.84C360.239 274.142 360.201 263.857 349.944 255.58Z" fill="#24A200" />
        </g>
        <path id="Vector_43" opacity="0.27" d="M341.326 301.303C302.895 300.811 252.303 284.957 206.229 293.604C185.155 297.363 163.727 298.764 142.342 297.78L138.639 296.833C140.173 294.854 143.004 294.56 145.505 294.428L178.377 292.628C188.112 292.088 197.479 292.372 206.892 289.115C211.92 287.253 216.818 285.058 221.553 282.542L241.204 272.674C247.9 269.302 254.652 265.912 261.888 263.942C270.515 261.584 279.607 261.309 288.519 262.048C295.599 262.535 302.594 263.873 309.354 266.035C322.156 270.342 333.403 278.331 341.686 289.001C342.932 290.409 343.825 292.094 344.29 293.916C344.792 296.625 343.428 299.381 341.326 301.303Z" fill="#5EC9E1" />
        <path id="Vector_44" d="M333.143 126.506C333.143 126.506 337.064 126.326 338.911 123.845C340.642 121.786 342.578 119.907 344.688 118.239C345.264 118.348 345.79 118.637 346.192 119.064C346.593 119.491 346.849 120.034 346.923 120.616C347.841 121.101 348.712 121.668 349.527 122.311C351.024 123.457 352.141 128.05 351.762 129.783C351.18 131.77 350.475 133.718 349.651 135.617C349.651 135.617 344.735 138.969 340.369 136.734C337.835 135.402 334.946 134.902 332.111 135.304C332.111 135.304 334.877 128.012 333.143 126.506Z" fill="url(#paint21_linear)" />
        <path id="Vector_45" d="M285.441 78.2257C285.441 78.2257 294.494 85.8021 296.606 92.8008C298.718 99.7995 298.965 113.92 278.915 121.364C258.866 128.808 216.581 143.894 199.524 133.022C182.468 122.15 190.385 95.14 190.385 95.14C190.385 95.14 193.151 86.7586 200.879 87.1564C208.607 87.5541 218.2 91.1624 228.144 88.2171C238.088 85.2718 254.169 79.3811 260.022 79.1254C265.875 78.8697 285.441 78.2257 285.441 78.2257Z" fill="#5EC9E1" />
        <path id="Vector_46" d="M278.915 121.364C258.866 128.808 216.581 143.894 199.524 133.022C188.614 126.061 187.923 112.49 188.832 103.607C189.656 110.615 192.431 117.935 199.524 122.453C216.571 133.316 258.866 118.239 278.915 110.795C290.498 106.495 295.309 99.9794 296.909 93.8899C298.699 101.22 297.98 114.28 278.915 121.364Z" fill="url(#paint22_linear)" />
        <path id="Vector_47" d="M274.294 94.0698C275.936 93.2086 277.767 92.7682 279.621 92.788C281.476 92.8078 283.296 93.2873 284.92 94.1835C290.829 97.2235 296.237 115.596 310.49 119.394C324.743 123.192 333.219 125.578 333.219 125.578C333.219 125.578 335.862 132.624 333.219 135.522C330.577 138.42 301.739 136.469 289.721 127.576C280.014 120.483 258.061 105.861 274.294 94.0698Z" fill="#5EC9E1" />
        <path id="Vector_48" d="M334.308 131.772C334.394 133.136 333.976 134.484 333.134 135.56C330.482 138.449 301.654 136.507 289.636 127.614C280.8 121.108 261.613 108.276 271.008 97.1005C268.612 107.111 284.209 117.604 291.909 123.286C302.989 131.412 328.314 133.732 334.308 131.772Z" fill="url(#paint23_linear)" />
        <path id="Vector_49" d="M281.349 78.3584C281.349 78.3584 286.823 75.0626 288.244 75.9055C289.664 76.7484 295.129 86.181 295.129 86.181V90.831L281.349 78.3584Z" fill="#5EC9E1" />
        <path id="Vector_50" d="M281.349 78.3584C281.349 78.3584 286.823 75.0626 288.244 75.9055C289.664 76.7484 295.129 86.181 295.129 86.181V90.831L281.349 78.3584Z" fill="url(#paint24_linear)" />
        <path id="Vector_51" d="M264.53 57.8547L267.466 57.4475C267.828 57.3972 268.197 57.4881 268.494 57.7013C268.792 57.9145 268.997 58.2338 269.066 58.5934L269.189 59.2658C269.226 59.4534 269.224 59.6464 269.185 59.8333C269.145 60.0202 269.068 60.1972 268.959 60.3537C268.849 60.5102 268.709 60.643 268.547 60.7441C268.385 60.8452 268.204 60.9125 268.015 60.9421L265.429 61.2641L264.53 57.8547Z" fill="#5EC9E1" />
        <path id="Vector_52" d="M332.111 164.928C336.243 164.928 339.593 161.578 339.593 157.446C339.593 153.314 336.243 149.965 332.111 149.965C327.979 149.965 324.63 153.314 324.63 157.446C324.63 161.578 327.979 164.928 332.111 164.928Z" fill="url(#paint25_linear)" />
        <path id="Vector_53" d="M341.97 83.2545C346.102 83.2545 349.452 79.9048 349.452 75.7728C349.452 71.6408 346.102 68.2911 341.97 68.2911C337.838 68.2911 334.488 71.6408 334.488 75.7728C334.488 79.9048 337.838 83.2545 341.97 83.2545Z" fill="url(#paint26_linear)" />
        <path id="Vector_54" d="M245.598 43.2512C250.4 43.2512 254.292 39.3588 254.292 34.5573C254.292 29.7558 250.4 25.8634 245.598 25.8634C240.797 25.8634 236.904 29.7558 236.904 34.5573C236.904 39.3588 240.797 43.2512 245.598 43.2512Z" fill="url(#paint27_linear)" />
        <path id="Vector_55" d="M207.158 45.6378C211.959 45.6378 215.851 41.7454 215.851 36.9439C215.851 32.1424 211.959 28.25 207.158 28.25C202.356 28.25 198.464 32.1424 198.464 36.9439C198.464 41.7454 202.356 45.6378 207.158 45.6378Z" fill="url(#paint28_linear)" />
        <path id="Vector_56" d="M164.701 79.1633V79.7221C164.659 79.6349 164.638 79.5394 164.638 79.4427C164.638 79.346 164.659 79.2505 164.701 79.1633V79.1633Z" fill="#5EC9E1" />
        <path id="Vector_57" d="M236.895 87.2417C236.895 87.2417 276.036 78.7182 290.668 100.728L295.309 107.527L297.203 103.209C297.203 103.209 298.15 93.0944 285.261 85.1013C277.507 80.2978 268.795 77.2496 259.738 76.1707L213.332 85.1013L210.946 97.0626L227.292 118.239C227.292 118.239 259.974 128.95 277.637 118.239L273.991 114.592C260.009 118.639 245.166 118.639 231.184 114.592L224.782 97.0341L236.895 87.2417Z" fill="#5EC9E1" />
        <path id="Vector_58" d="M236.895 87.2417C236.895 87.2417 276.036 78.7182 290.668 100.728L295.309 107.527L297.203 103.209C297.203 103.209 298.15 93.0944 285.261 85.1013C277.507 80.2978 268.795 77.2496 259.738 76.1707L213.332 85.1013L210.946 97.0626L227.292 118.239C227.292 118.239 259.974 128.95 277.637 118.239L273.991 114.592C260.009 118.639 245.166 118.639 231.184 114.592L224.782 97.0341L236.895 87.2417Z" fill="url(#paint29_linear)" />
        <path id="Vector_59" d="M293.046 57.8222C292.677 53.7427 294.486 46.0788 299.732 43.4839C304.496 41.1162 317.556 41.2583 321.78 46.2966C328.134 53.8446 323.967 57.1971 321.05 57.2824L309.402 57.6423C308.083 57.5876 306.769 57.8304 305.557 58.3525C304.733 58.7882 304.06 59.4795 303.227 59.8962C301.636 60.6633 299.704 60.3413 298.047 59.7163C296.441 58.9346 294.767 58.3006 293.046 57.8222Z" fill="#070000" />
    </g>
    <defs>
        <linearGradient id="paint0_linear" x1="312.791" y1="51.4243" x2="360.428" y2="69.0205" gradientUnits="userSpaceOnUse">
            <stop stop-opacity="0" />
            <stop offset="0.52" stop-opacity="0.41" />
            <stop offset="0.91" stop-opacity="0.8" />
            <stop offset="1" />
        </linearGradient>
        <linearGradient id="paint1_linear" x1="16943" y1="1375.87" x2="22976.9" y2="1375.87" gradientUnits="userSpaceOnUse">
            <stop stop-opacity="0" />
            <stop offset="0.91" stop-opacity="0.8" />
            <stop offset="1" />
        </linearGradient>
        <linearGradient id="paint2_linear" x1="283.262" y1="69.3614" x2="323.654" y2="69.3614" gradientUnits="userSpaceOnUse">
            <stop stop-color="#ECC4D7" />
            <stop offset="0.42" stop-color="#EFD4D1" />
            <stop offset="1" stop-color="#F2EAC9" />
        </linearGradient>
        <linearGradient id="paint3_linear" x1="5706.4" y1="1768.19" x2="5806.48" y2="1444.37" gradientUnits="userSpaceOnUse">
            <stop stop-opacity="0" />
            <stop offset="0.52" stop-opacity="0.41" />
            <stop offset="0.91" stop-opacity="0.8" />
            <stop offset="1" />
        </linearGradient>
        <linearGradient id="paint4_linear" x1="4184.12" y1="1118.45" x2="4370.21" y2="1139.81" gradientUnits="userSpaceOnUse">
            <stop stop-opacity="0" />
            <stop offset="0.52" stop-opacity="0.41" />
            <stop offset="0.91" stop-opacity="0.8" />
            <stop offset="1" />
        </linearGradient>
        <linearGradient id="paint5_linear" x1="290.668" y1="69.9011" x2="303.681" y2="69.9011" gradientUnits="userSpaceOnUse">
            <stop stop-color="white" />
            <stop offset="1" stop-color="white" stop-opacity="0" />
        </linearGradient>
        <linearGradient id="paint6_linear" x1="8319.27" y1="1601.88" x2="8979.95" y2="1601.88" gradientUnits="userSpaceOnUse">
            <stop stop-opacity="0" />
            <stop offset="0.52" stop-opacity="0.41" />
            <stop offset="0.91" stop-opacity="0.8" />
            <stop offset="1" />
        </linearGradient>
        <linearGradient id="paint7_linear" x1="8474.99" y1="993.048" x2="8445.75" y2="1480.77" gradientUnits="userSpaceOnUse">
            <stop stop-opacity="0" />
            <stop offset="0.52" stop-opacity="0.41" />
            <stop offset="0.91" stop-opacity="0.8" />
            <stop offset="1" />
        </linearGradient>
        <linearGradient id="paint8_linear" x1="4902.82" y1="1691.52" x2="5114.05" y2="1691.52" gradientUnits="userSpaceOnUse">
            <stop stop-opacity="0" />
            <stop offset="0.52" stop-opacity="0.41" />
            <stop offset="0.91" stop-opacity="0.8" />
            <stop offset="1" />
        </linearGradient>
        <linearGradient id="paint9_linear" x1="36.3194" y1="66.7285" x2="6.36419" y2="134.007" gradientUnits="userSpaceOnUse">
            <stop stop-opacity="0" />
            <stop offset="0.91" stop-opacity="0.8" />
            <stop offset="1" />
        </linearGradient>
        <linearGradient id="paint10_linear" x1="21618" y1="6352.37" x2="21296" y2="8197.28" gradientUnits="userSpaceOnUse">
            <stop stop-opacity="0" />
            <stop offset="0.91" stop-opacity="0.8" />
            <stop offset="1" />
        </linearGradient>
        <linearGradient id="paint11_linear" x1="1045.66" y1="1262.74" x2="1483.64" y2="1262.74" gradientUnits="userSpaceOnUse">
            <stop stop-color="#ECC4D7" />
            <stop offset="0.42" stop-color="#EFD4D1" />
            <stop offset="1" stop-color="#F2EAC9" />
        </linearGradient>
        <linearGradient id="paint12_linear" x1="19672.7" y1="6646.28" x2="19746.7" y2="8424.37" gradientUnits="userSpaceOnUse">
            <stop stop-opacity="0" />
            <stop offset="0.91" stop-opacity="0.8" />
            <stop offset="1" />
        </linearGradient>
        <linearGradient id="paint13_linear" x1="793.382" y1="3806.12" x2="1372.5" y2="3806.12" gradientUnits="userSpaceOnUse">
            <stop stop-color="#ECC4D7" />
            <stop offset="0.42" stop-color="#EFD4D1" />
            <stop offset="1" stop-color="#F2EAC9" />
        </linearGradient>
        <linearGradient id="paint14_linear" x1="1010.51" y1="16330.7" x2="3168.03" y2="16330.7" gradientUnits="userSpaceOnUse">
            <stop stop-opacity="0" />
            <stop offset="0.91" stop-opacity="0.8" />
            <stop offset="1" />
        </linearGradient>
        <linearGradient id="paint15_linear" x1="18522.9" y1="2686.58" x2="18221" y2="3427.25" gradientUnits="userSpaceOnUse">
            <stop stop-opacity="0" />
            <stop offset="0.52" stop-opacity="0.41" />
            <stop offset="0.91" stop-opacity="0.8" />
            <stop offset="1" />
        </linearGradient>
        <linearGradient id="paint16_linear" x1="6947.99" y1="2109.68" x2="7314.02" y2="2109.68" gradientUnits="userSpaceOnUse">
            <stop stop-color="#ECC4D7" />
            <stop offset="0.42" stop-color="#EFD4D1" />
            <stop offset="1" stop-color="#F2EAC9" />
        </linearGradient>
        <linearGradient id="paint17_linear" x1="23150.4" y1="3111.34" x2="23243.7" y2="4142.37" gradientUnits="userSpaceOnUse">
            <stop stop-color="white" />
            <stop offset="1" stop-color="white" stop-opacity="0" />
        </linearGradient>
        <linearGradient id="paint18_linear" x1="22841.7" y1="2234.92" x2="22946.9" y2="4074.8" gradientUnits="userSpaceOnUse">
            <stop stop-opacity="0" />
            <stop offset="0.91" stop-opacity="0.8" />
            <stop offset="1" />
        </linearGradient>
        <linearGradient id="paint19_linear" x1="6305.41" y1="3257.71" x2="6687.11" y2="4989.48" gradientUnits="userSpaceOnUse">
            <stop stop-opacity="0" />
            <stop offset="0.91" stop-opacity="0.8" />
            <stop offset="1" />
        </linearGradient>
        <linearGradient id="paint20_linear" x1="5782.38" y1="3249.95" x2="6198.37" y2="4965.3" gradientUnits="userSpaceOnUse">
            <stop stop-opacity="0" />
            <stop offset="0.91" stop-opacity="0.8" />
            <stop offset="1" />
        </linearGradient>
        <linearGradient id="paint21_linear" x1="7249.5" y1="3008.25" x2="7660.38" y2="3008.25" gradientUnits="userSpaceOnUse">
            <stop stop-color="#ECC4D7" />
            <stop offset="0.42" stop-color="#EFD4D1" />
            <stop offset="1" stop-color="#F2EAC9" />
        </linearGradient>
        <linearGradient id="paint22_linear" x1="27992.1" y1="5271.64" x2="28143.7" y2="6676.26" gradientUnits="userSpaceOnUse">
            <stop stop-opacity="0" />
            <stop offset="0.91" stop-opacity="0.8" />
            <stop offset="1" />
        </linearGradient>
        <linearGradient id="paint23_linear" x1="21486.3" y1="5397.51" x2="21065.8" y2="6306.21" gradientUnits="userSpaceOnUse">
            <stop stop-opacity="0" />
            <stop offset="0.52" stop-opacity="0.41" />
            <stop offset="0.91" stop-opacity="0.8" />
            <stop offset="1" />
        </linearGradient>
        <linearGradient id="paint24_linear" x1="4552.47" y1="1596.42" x2="4418.7" y2="1669.66" gradientUnits="userSpaceOnUse">
            <stop stop-opacity="0" />
            <stop offset="0.91" stop-opacity="0.8" />
            <stop offset="1" />
        </linearGradient>
        <linearGradient id="paint25_linear" x1="5605.65" y1="2491.28" x2="5529.79" y2="2654.09" gradientUnits="userSpaceOnUse">
            <stop stop-color="white" />
            <stop offset="1" stop-color="white" stop-opacity="0" />
        </linearGradient>
        <linearGradient id="paint26_linear" x1="5771.28" y1="1119.02" x2="5695.41" y2="1281.97" gradientUnits="userSpaceOnUse">
            <stop stop-color="white" />
            <stop offset="1" stop-color="white" stop-opacity="0" />
        </linearGradient>
        <linearGradient id="paint27_linear" x1="4791.47" y1="476.556" x2="4689.06" y2="696.686" gradientUnits="userSpaceOnUse">
            <stop stop-color="white" />
            <stop offset="1" stop-color="white" stop-opacity="0" />
        </linearGradient>
        <linearGradient id="paint28_linear" x1="4047.43" y1="522.76" x2="3944.84" y2="742.89" gradientUnits="userSpaceOnUse">
            <stop stop-color="white" />
            <stop offset="1" stop-color="white" stop-opacity="0" />
        </linearGradient>
        <linearGradient id="paint29_linear" x1="24005.8" y1="7310.7" x2="23658.5" y2="4368.84" gradientUnits="userSpaceOnUse">
            <stop stop-opacity="0" />
            <stop offset="0.91" stop-opacity="0.8" />
            <stop offset="1" />
        </linearGradient>
        <clipPath id="clip0">
            <rect width="406" height="306" fill="white" />
        </clipPath>
    </defs>
</svg>